<?xml version="1.0" encoding="UTF-8" standalone="no"?>
<!-- Created with Inkscape (http://www.inkscape.org/) -->

<svg
   xmlns:dc="http://purl.org/dc/elements/1.1/"
   xmlns:cc="http://creativecommons.org/ns#"
   xmlns:rdf="http://www.w3.org/1999/02/22-rdf-syntax-ns#"
   xmlns:svg="http://www.w3.org/2000/svg"
   xmlns="http://www.w3.org/2000/svg"
   xmlns:sodipodi="http://sodipodi.sourceforge.net/DTD/sodipodi-0.dtd"
   xmlns:inkscape="http://www.inkscape.org/namespaces/inkscape"
   id="svg4190"
   version="1.1"
   inkscape:version="0.91 r13725"
   width="100"
   height="100"
   viewBox="0 0 100 100"
   sodipodi:docname="boulder.svg"
   inkscape:export-filename="/Users/pedrosantos/Desktop/projects_temp/PipeCruncher/Images/pipe_boulder.png"
   inkscape:export-xdpi="215.59"
   inkscape:export-ydpi="215.59">
  <metadata
     id="metadata4196">
    <rdf:RDF>
      <cc:Work
         rdf:about="">
        <dc:format>image/svg+xml</dc:format>
        <dc:type
           rdf:resource="http://purl.org/dc/dcmitype/StillImage" />
        <dc:title></dc:title>
      </cc:Work>
    </rdf:RDF>
  </metadata>
  <defs
     id="defs4194" />
  <sodipodi:namedview
     pagecolor="#ffffff"
     bordercolor="#666666"
     borderopacity="1"
     objecttolerance="10"
     gridtolerance="10"
     guidetolerance="10"
     inkscape:pageopacity="0"
     inkscape:pageshadow="2"
     inkscape:window-width="1484"
     inkscape:window-height="853"
     id="namedview4192"
     showgrid="false"
     inkscape:zoom="5.0880945"
     inkscape:cx="40.97704"
     inkscape:cy="38.44874"
     inkscape:window-x="0"
     inkscape:window-y="0"
     inkscape:window-maximized="0"
     inkscape:current-layer="g4431" />
  <g
     id="g4431"
     transform="matrix(0.64732487,0,0,0.64732487,-85.972395,100.84988)">
    <rect
       ry="25.731205"
       y="-139.88576"
       x="148.72092"
       height="122.66376"
       width="122.66374"
       id="rect4316"
       style="fill:#7f5225;fill-opacity:1;stroke:#472605;stroke-width:6.31456566;stroke-linecap:round;stroke-linejoin:round;stroke-miterlimit:4;stroke-dasharray:none;stroke-opacity:1" />
    <g
       id="g4487"
       transform="matrix(0.71035623,0,0,0.71035619,57.940027,-27.756781)">
      <path
         style="fill:#e3ccad;fill-opacity:1;fill-rule:evenodd;stroke:#cda271;stroke-width:3.79999995;stroke-linecap:butt;stroke-linejoin:miter;stroke-miterlimit:4;stroke-dasharray:none;stroke-opacity:1"
         d="m 205.66459,-112.99436 c -12.28814,7.76093 -33.19952,11.64139 -28.45673,22.42046 4.74279,10.77907 18.97116,18.53999 33.63069,17.24651 14.65953,-1.29349 14.22836,-13.79721 12.07255,-21.55814 -2.15581,-7.76093 -4.95837,-25.86976 -17.24651,-18.10883 z"
         id="path4320"
         inkscape:connector-curvature="0"
         sodipodi:nodetypes="zsssz" />
      <path
         style="fill:none;fill-rule:evenodd;stroke:#cda271;stroke-width:1.70000005;stroke-linecap:round;stroke-linejoin:round;stroke-miterlimit:4;stroke-dasharray:none;stroke-opacity:1"
         d="m 218.38591,-77.21149 c -5.7797,0.50543 -5.60427,-5.19053 -8.24729,-8.5936 -0.88468,-1.26301 -2.65598,-1.48835 -3.86283,-2.70918"
         id="path4336"
         inkscape:connector-curvature="0" />
      <path
         style="fill:#5a422a;fill-opacity:1;fill-rule:evenodd;stroke:#cda271;stroke-width:1.70000005;stroke-linecap:round;stroke-linejoin:round;stroke-miterlimit:4;stroke-dasharray:none;stroke-opacity:1"
         d="m 178.01883,-88.91794 c 3.04023,-1.20001 4.18126,-3.79057 8.32572,-2.8762 0.5152,-1.25605 0.56616,-0.53595 1.36238,-1.16055"
         id="path4338"
         inkscape:connector-curvature="0" />
    </g>
    <g
       id="g4502"
       transform="matrix(0.71035623,0,0,0.71035619,64.416595,-26.115563)">
      <path
         style="fill:#e3ccad;fill-opacity:1;fill-rule:evenodd;stroke:#cda271;stroke-width:3.79999995;stroke-linecap:butt;stroke-linejoin:miter;stroke-miterlimit:4;stroke-dasharray:none;stroke-opacity:1"
         d="m 243.17575,-92.29856 c -9.65364,5.59088 -22.85163,21.9893 -12.50372,31.04372 10.3479,9.05441 32.3372,18.53999 38.37347,9.48558 6.03628,-9.05442 5.60512,-18.10884 4.74279,-25.00744 -0.86232,-6.8986 -6.8986,-16.38418 -15.09069,-13.36604 -8.19209,3.01814 -11.00159,-4.77372 -15.52185,-2.15582 z"
         id="path4324"
         inkscape:connector-curvature="0"
         sodipodi:nodetypes="assssa" />
      <path
         style="fill:none;fill-rule:evenodd;stroke:#cda271;stroke-width:1.70000005;stroke-linecap:round;stroke-linejoin:round;stroke-miterlimit:4;stroke-dasharray:none;stroke-opacity:1"
         d="m 230.49604,-77.61516 c 4.19397,-0.62045 7.55601,4.05661 10.89911,2.01835"
         id="path4344"
         inkscape:connector-curvature="0" />
      <path
         style="fill:none;fill-rule:evenodd;stroke:#cda271;stroke-width:1.70000005;stroke-linecap:round;stroke-linejoin:round;stroke-miterlimit:4;stroke-dasharray:none;stroke-opacity:1"
         d="m 272.07413,-60.25732 c -3.34408,-1.33809 -7.55328,-1.60057 -9.47505,-2.99872 -2.8446,-0.50624 -2.98972,-4.67437 -5.09948,-6.8774 -0.0548,-0.60855 -1.54242,-2.5825 -1.16863,-2.234"
         id="path4346"
         inkscape:connector-curvature="0" />
    </g>
    <g
       id="g4521"
       transform="matrix(0.71035623,0,0,0.71035619,63.669061,-22.44642)">
      <path
         style="fill:#e3ccad;fill-opacity:1;fill-rule:evenodd;stroke:#cda271;stroke-width:3.79999995;stroke-linecap:butt;stroke-linejoin:miter;stroke-miterlimit:4;stroke-dasharray:none;stroke-opacity:1"
         d="m 252.23016,-36.2474 c -3.88046,5.60512 -20.69581,13.7972 -11.64139,17.2465 9.05442,3.4493 16.81534,10.34791 22.42046,5.60512 5.60511,-4.74279 12.50372,-5.60512 12.07255,-10.77907 -0.43116,-5.17395 4.31163,-8.62325 -2.58697,-13.36604 -6.8986,-4.74279 -16.38418,-4.31163 -20.26465,1.29349 z"
         id="path4334"
         inkscape:connector-curvature="0"
         sodipodi:nodetypes="zssssz" />
      <path
         style="fill:none;fill-rule:evenodd;stroke:#cda271;stroke-width:1.70000005;stroke-linecap:round;stroke-linejoin:round;stroke-miterlimit:4;stroke-dasharray:none;stroke-opacity:1"
         d="m 247.04654,-30.78935 c 4.61289,-0.81041 9.06627,2.00898 12.91747,3.63304"
         id="path4348"
         inkscape:connector-curvature="0" />
    </g>
    <g
       id="g4507"
       transform="matrix(0.71035623,0,0,0.71035619,58.656343,-24.657805)">
      <path
         style="fill:#e3ccad;fill-opacity:1;fill-rule:evenodd;stroke:#cda271;stroke-width:3.79999995;stroke-linecap:butt;stroke-linejoin:miter;stroke-miterlimit:4;stroke-dasharray:none;stroke-opacity:1"
         d="m 194.88553,-61.25484 c 1.94023,8.83884 -3.4493,24.14511 9.91674,25.86976 13.36604,1.72465 34.92418,8.62326 33.19953,0.86233 -1.72465,-7.76093 -3.44931,-14.22837 -12.93488,-17.24651 -9.48558,-3.01814 -32.12162,-18.32442 -30.18139,-9.48558 z"
         id="path4330"
         inkscape:connector-curvature="0"
         sodipodi:nodetypes="zsssz" />
      <path
         style="fill:none;fill-rule:evenodd;stroke:#cda271;stroke-width:1.70000005;stroke-linecap:round;stroke-linejoin:round;stroke-miterlimit:4;stroke-dasharray:none;stroke-opacity:1"
         d="m 217.57857,-34.82605 c -0.22772,-5.24649 -2.07846,-10.6533 -7.51837,-12.43378 0.96825,0.76808 -1.67571,-0.64469 -0.95871,-0.48369"
         id="path4350"
         inkscape:connector-curvature="0" />
    </g>
    <g
       id="g4511"
       transform="matrix(0.71035623,0,0,0.71035619,53.75781,-16.495864)">
      <path
         style="fill:#e3ccad;fill-opacity:1;fill-rule:evenodd;stroke:#cda271;stroke-width:3.79999995;stroke-linecap:butt;stroke-linejoin:miter;stroke-miterlimit:4;stroke-dasharray:none;stroke-opacity:1"
         d="m 161.25484,-70.74042 c -4.95837,3.88046 -21.12697,7.76093 -15.95302,18.54 5.17395,10.77906 0,27.59441 15.09069,25.86976 15.0907,-1.72465 31.04372,-2.58698 30.18139,-9.48558 -0.86232,-6.8986 -3.4493,-18.97116 -3.88046,-22.85162 -0.43117,-3.88047 -8.69909,-9.63354 -12.39012,-11.00549 -3.69104,-1.37195 -8.09011,-4.94753 -13.04848,-1.06707 z"
         id="path4326"
         inkscape:connector-curvature="0"
         sodipodi:nodetypes="zsssszz" />
      <path
         style="fill:none;fill-rule:evenodd;stroke:#cda271;stroke-width:1.70000005;stroke-linecap:round;stroke-linejoin:round;stroke-miterlimit:4;stroke-dasharray:none;stroke-opacity:1"
         d="m 187.30326,-56.22061 c -4.04084,3.31722 -6.85903,6.97868 -12.57866,7.74356 -0.81564,-0.22857 -1.39317,0.84389 -2.35716,0.73353"
         id="path4352"
         inkscape:connector-curvature="0" />
      <path
         style="fill:none;fill-rule:evenodd;stroke:#cda271;stroke-width:1.70000005;stroke-linecap:round;stroke-linejoin:round;stroke-miterlimit:4;stroke-dasharray:none;stroke-opacity:1"
         d="m 147.74352,-60.25732 c 2.97939,0.40554 5.30015,2.68711 7.26608,4.03671 2.13561,0.6058 3.04806,2.41276 6.05506,2.42203"
         id="path4354"
         inkscape:connector-curvature="0" />
      <path
         style="fill:none;fill-rule:evenodd;stroke:#cda271;stroke-width:1.70000005;stroke-linecap:round;stroke-linejoin:round;stroke-miterlimit:4;stroke-dasharray:none;stroke-opacity:1"
         d="m 164.6977,-38.86276 c -0.78763,4.21846 -4.07126,7.4892 -7.9857,8.73654 -0.74534,0.50538 -1.92364,0.43215 -2.50979,0.95156"
         id="path4356"
         inkscape:connector-curvature="0" />
    </g>
    <g
       id="g4517"
       transform="matrix(0.71035623,0,0,0.71035619,68.516597,-20.380436)">
      <path
         style="fill:#e3ccad;fill-opacity:1;fill-rule:evenodd;stroke:#cda271;stroke-width:3.79999995;stroke-linecap:butt;stroke-linejoin:miter;stroke-miterlimit:4;stroke-dasharray:none;stroke-opacity:1"
         d="m 200.49064,-28.05531 c -8.62325,4.09604 -38.80464,7.76092 -23.71394,12.93488 15.09069,5.17395 27.59441,7.76092 35.7865,6.03627 8.19209,-1.72465 2.15581,-11.21023 -0.86233,-13.7972 -3.01814,-2.58698 -2.58698,-9.27 -11.21023,-5.17395 z"
         id="path4332"
         inkscape:connector-curvature="0"
         sodipodi:nodetypes="zsssz" />
      <path
         style="fill:none;fill-rule:evenodd;stroke:#cda271;stroke-width:1.70000005;stroke-linecap:round;stroke-linejoin:round;stroke-miterlimit:4;stroke-dasharray:none;stroke-opacity:1"
         d="m 189.32162,-11.00948 c 3.36525,-1.69449 12.52747,-0.75585 11.30278,-6.0551"
         id="path4358"
         inkscape:connector-curvature="0" />
    </g>
    <g
       id="g4480"
       transform="matrix(0.71035623,0,0,0.71035619,63.732246,-28.067364)">
      <path
         style="fill:#e3ccad;fill-opacity:1;fill-rule:evenodd;stroke:#cda271;stroke-width:3.74646378;stroke-linecap:butt;stroke-linejoin:miter;stroke-miterlimit:4;stroke-dasharray:none;stroke-opacity:1"
         d="m 226.3604,-143.17575 c -7.54535,7.54535 -8.36109,21.05269 -2.58697,30.18139 5.77412,9.1287 22.60101,13.56264 32.3372,12.07256 9.73619,-1.49008 21.9893,-0.86233 19.40232,-15.0907 -2.58698,-14.22837 -4.31163,-16.38418 -13.36605,-22.85162 -9.05442,-6.46744 -28.24115,-11.85698 -35.7865,-4.31163 z"
         id="path4322"
         inkscape:connector-curvature="0"
         sodipodi:nodetypes="zzzzzz" />
      <path
         style="fill:none;fill-rule:evenodd;stroke:#cda271;stroke-width:1.70000005;stroke-linecap:round;stroke-linejoin:round;stroke-miterlimit:4;stroke-dasharray:none;stroke-opacity:1"
         d="m 221.21161,-132.11072 c 3.77726,0.12715 7.92341,1.68899 9.67558,3.14859 0.65286,0.76242 1.90242,-0.74278 2.03087,0.48444"
         id="path4342"
         inkscape:connector-curvature="0" />
      <path
         style="fill:none;fill-rule:evenodd;stroke:#cda271;stroke-width:1.70000005;stroke-linecap:round;stroke-linejoin:round;stroke-miterlimit:4;stroke-dasharray:none;stroke-opacity:1"
         d="m 248.66123,-101.83541 c -1.34112,-4.62865 -1.48006,-10.58294 1.10852,-13.34098 1.49371,-1.37854 2.41691,-3.00798 2.9282,-5.22788"
         id="path4360"
         inkscape:connector-curvature="0" />
      <path
         style="fill:none;fill-rule:evenodd;stroke:#cda271;stroke-width:1.70000005;stroke-linecap:round;stroke-linejoin:round;stroke-miterlimit:4;stroke-dasharray:none;stroke-opacity:1"
         d="m 272.4778,-106.27579 c -2.3888,-2.22816 -5.05466,-3.66861 -6.06205,-6.99336 -0.94728,-1.65911 0.63904,-2.88487 0.81433,-3.09841"
         id="path4362"
         inkscape:connector-curvature="0" />
      <path
         style="fill:none;fill-rule:evenodd;stroke:#cda271;stroke-width:1.70000005;stroke-linecap:round;stroke-linejoin:round;stroke-miterlimit:4;stroke-dasharray:none;stroke-opacity:1"
         d="m 255.52363,-137.76211 c -3.00934,3.19551 -7.49853,5.65479 -10.81541,7.7781 -0.47012,1.01433 -1.81016,0.16868 -1.69839,1.10265"
         id="path4364"
         inkscape:connector-curvature="0" />
    </g>
    <g
       id="g4492"
       transform="matrix(0.71035623,0,0,0.71035619,54.150608,-27.560383)">
      <path
         style="fill:#e3ccad;fill-opacity:1;fill-rule:evenodd;stroke:#cda271;stroke-width:3.79999995;stroke-linecap:butt;stroke-linejoin:miter;stroke-miterlimit:4;stroke-dasharray:none;stroke-opacity:1"
         d="m 163.41065,-143.60691 c -8.19209,6.68302 -18.53999,7.76093 -16.81534,13.79721 1.72465,6.03628 17.67767,30.61255 33.63069,20.26464 15.95302,-10.3479 21.98929,-16.38418 14.65953,-23.28278 -7.32977,-6.89861 -23.28279,-17.46209 -31.47488,-10.77907 z"
         id="path4318"
         inkscape:connector-curvature="0"
         sodipodi:nodetypes="zzssz" />
      <path
         style="fill:none;fill-rule:evenodd;stroke:#cda271;stroke-width:1.70000005;stroke-linecap:round;stroke-linejoin:round;stroke-miterlimit:4;stroke-dasharray:none;stroke-opacity:1"
         d="m 190.12896,-117.1749 c -4.16403,-2.14991 -10.60959,-0.783 -12.91747,-5.24772"
         id="path4340"
         inkscape:connector-curvature="0" />
      <path
         style="fill:none;fill-rule:evenodd;stroke:#cda271;stroke-width:1.70000005;stroke-linecap:round;stroke-linejoin:round;stroke-miterlimit:4;stroke-dasharray:none;stroke-opacity:1"
         d="m 187.70693,-137.76211 c -3.95903,1.95757 -6.80269,3.45645 -11.55413,3.98909 -2.33794,0.19569 -4.25625,0.75607 -6.20738,2.06597"
         id="path4366"
         inkscape:connector-curvature="0" />
      <path
         style="fill:none;fill-rule:evenodd;stroke:#cda271;stroke-width:1.70000005;stroke-linecap:round;stroke-linejoin:round;stroke-miterlimit:4;stroke-dasharray:none;stroke-opacity:1"
         d="m 156.22061,-115.15655 c 2.22515,-5.43603 1.3059,-11.19098 3.22936,-16.5505"
         id="path4368"
         inkscape:connector-curvature="0" />
    </g>
    <g
       id="g4498"
       transform="matrix(0.71035623,0,0,0.71035619,56.786759,-22.059716)">
      <path
         style="fill:#e3ccad;fill-opacity:1;fill-rule:evenodd;stroke:#cda271;stroke-width:3.79999995;stroke-linecap:butt;stroke-linejoin:miter;stroke-miterlimit:4;stroke-dasharray:none;stroke-opacity:1"
         d="m 146.59531,-100.9218 c 0.21558,10.77906 -15.95302,36.21766 0.43116,28.88789 16.38418,-7.32976 28.45674,-6.03627 25.00744,-14.65953 -3.44931,-8.62325 -25.65418,-25.00743 -25.4386,-14.22836 z"
         id="path4328"
         inkscape:connector-curvature="0"
         sodipodi:nodetypes="zssz" />
      <path
         style="fill:none;fill-rule:evenodd;stroke:#cda271;stroke-width:1.70000005;stroke-linecap:round;stroke-linejoin:round;stroke-miterlimit:4;stroke-dasharray:none;stroke-opacity:1"
         d="m 163.68852,-96.18402 c -1.44224,2.95745 0.63195,-1.67327 -0.80734,2.01835 -2.6707,2.53038 -4.09155,8.6234 -8.8546,7.80961 l -0.42983,-0.13986"
         id="path4370"
         inkscape:connector-curvature="0" />
    </g>
  </g>
</svg>
